<?xml version="1.0" encoding="UTF-8" standalone="no"?>
<!-- Created with Inkscape (http://www.inkscape.org/) -->

<svg
   width="210mm"
   height="210mm"
   viewBox="0 0 210 210"
   version="1.1"
   id="svg2155"
   xml:space="preserve"
   inkscape:version="1.2.1 (9c6d41e410, 2022-07-14)"
   sodipodi:docname="feature-image.svg"
   xmlns:inkscape="http://www.inkscape.org/namespaces/inkscape"
   xmlns:sodipodi="http://sodipodi.sourceforge.net/DTD/sodipodi-0.dtd"
   xmlns="http://www.w3.org/2000/svg"
   xmlns:svg="http://www.w3.org/2000/svg"><sodipodi:namedview
     id="namedview2157"
     pagecolor="#ffffff"
     bordercolor="#000000"
     borderopacity="0.25"
     inkscape:showpageshadow="2"
     inkscape:pageopacity="0.0"
     inkscape:pagecheckerboard="0"
     inkscape:deskcolor="#d1d1d1"
     inkscape:document-units="mm"
     showgrid="false"
     inkscape:zoom="0.89263468"
     inkscape:cx="524.29063"
     inkscape:cy="480.59975"
     inkscape:window-width="2560"
     inkscape:window-height="1369"
     inkscape:window-x="1912"
     inkscape:window-y="1072"
     inkscape:window-maximized="1"
     inkscape:current-layer="layer6" /><defs
     id="defs2152" /><g
     inkscape:groupmode="layer"
     id="layer6"
     inkscape:label="Layer 2"><g
       style="fill:#5fd35f"
       id="g2372"
       transform="matrix(2.4318195,0,0,2.4318195,19.29777,132.27857)"><path
         d="M 9.293,0 H 4 A 2,2 0 0 0 2,2 v 12 a 2,2 0 0 0 2,2 h 8 a 2,2 0 0 0 2,-2 V 4.707 A 1,1 0 0 0 13.707,4 L 10,0.293 A 1,1 0 0 0 9.293,0 Z M 9.5,3.5 v -2 l 3,3 h -2 a 1,1 0 0 1 -1,-1 z m 0.5,10 v -6 A 0.5,0.5 0 0 1 10.5,7 h 1 A 0.5,0.5 0 0 1 12,7.5 v 6 A 0.5,0.5 0 0 1 11.5,14 h -1 A 0.5,0.5 0 0 1 10,13.5 Z M 7.5,14 A 0.5,0.5 0 0 1 7,13.5 v -4 A 0.5,0.5 0 0 1 7.5,9 h 1 A 0.5,0.5 0 0 1 9,9.5 v 4 A 0.5,0.5 0 0 1 8.5,14 Z m -3,0 A 0.5,0.5 0 0 1 4,13.5 v -2 A 0.5,0.5 0 0 1 4.5,11 h 1 A 0.5,0.5 0 0 1 6,11.5 v 2 A 0.5,0.5 0 0 1 5.5,14 Z"
         id="path2363"
         style="fill:#5fd35f" /></g><g
       style="fill:#ff2a7f"
       id="g2554"
       transform="matrix(1.3474729,0,0,1.3474729,132.91318,42.858692)"><path
         d="M 12,0 H 4 A 2,2 0 0 0 2,2 v 12 a 2,2 0 0 0 2,2 h 8 a 2,2 0 0 0 2,-2 V 2 A 2,2 0 0 0 12,0 Z m -0.5,4.11 v 1.8 L 9,6.41 V 11.5 C 9,11.995 8.699,12.383 8.338,12.623 7.974,12.866 7.499,13 7,13 6.5,13 6.026,12.866 5.662,12.623 5.302,12.383 5,11.995 5,11.5 5,11.005 5.301,10.617 5.662,10.377 6.026,10.134 6.501,10 7,10 c 0.356,0 0.7,0.068 1,0.196 V 4.41 A 1,1 0 0 1 8.804,3.43 l 1.5,-0.3 A 1,1 0 0 1 11.5,4.11 Z"
         id="path2545"
         style="fill:#ff2a7f" /></g><g
       style="fill:#ff2a2a"
       id="g2580"
       transform="matrix(1.6848678,0,0,1.6848678,15.595073,75.712575)"><path
         d="M 9.293,0 H 4 A 2,2 0 0 0 2,2 v 12 a 2,2 0 0 0 2,2 h 8 a 2,2 0 0 0 2,-2 V 4.707 A 1,1 0 0 0 13.707,4 L 10,0.293 A 1,1 0 0 0 9.293,0 Z M 9.5,3.5 v -2 l 3,3 h -2 a 1,1 0 0 1 -1,-1 z M 6,6.883 A 0.5,0.5 0 0 1 6.757,6.454 l 3.528,2.117 a 0.5,0.5 0 0 1 0,0.858 L 6.757,11.546 A 0.5,0.5 0 0 1 6,11.116 V 6.884 Z"
         id="path2571"
         style="fill:#ff2a2a" /></g><g
       style="fill:#2ad4ff"
       id="g2591"
       transform="matrix(1.6320622,0,0,1.6320622,162.89546,85.247307)"><path
         d="M 9.293,0 H 4 A 2,2 0 0 0 2,2 v 12 a 2,2 0 0 0 2,2 h 8 a 2,2 0 0 0 2,-2 V 4.707 A 1,1 0 0 0 13.707,4 L 10,0.293 A 1,1 0 0 0 9.293,0 Z M 9.5,3.5 v -2 l 3,3 h -2 a 1,1 0 0 1 -1,-1 z M 7,6.25 a 0.75,0.75 0 1 1 -1.5,0 0.75,0.75 0 0 1 1.5,0 z M 6.139,7.792 7.469,8.678 9.323,6.823 A 0.25,0.25 0 0 1 9.612,6.776 L 11.5,7.75 V 9.5 A 0.5,0.5 0 0 1 11,10 H 5 A 0.5,0.5 0 0 1 4.5,9.5 V 9 C 4.5,9 6.04,7.726 6.139,7.792 Z M 5,11 h 6 a 0.5,0.5 0 0 1 0,1 H 5 a 0.5,0.5 0 0 1 0,-1 z m 0,2 h 3 a 0.5,0.5 0 0 1 0,1 H 5 a 0.5,0.5 0 0 1 0,-1 z"
         id="path2582"
         style="fill:#2ad4ff" /></g><g
       style="fill:#bc5fd3"
       id="g2605"
       transform="matrix(2.9198977,0,0,2.9198977,71.568812,148.93703)"><path
         d="m 6.002,5.5 a 1.5,1.5 0 1 1 -3,0 1.5,1.5 0 0 1 3,0 z"
         id="path2593"
         style="fill:#bc5fd3" /><path
         d="M 1.5,2 A 1.5,1.5 0 0 0 0,3.5 v 9 A 1.5,1.5 0 0 0 1.5,14 h 13 A 1.5,1.5 0 0 0 16,12.5 v -9 A 1.5,1.5 0 0 0 14.5,2 Z m 13,1 A 0.5,0.5 0 0 1 15,3.5 v 6 L 11.225,7.553 a 0.5,0.5 0 0 0 -0.577,0.093 l -3.71,3.71 -2.66,-1.772 A 0.5,0.5 0 0 0 3.648,9.646 L 1.002,12 v 0.54 A 0.505,0.505 0 0 1 1,12.5 v -9 A 0.5,0.5 0 0 1 1.5,3 Z"
         id="path2595"
         style="fill:#bc5fd3" /></g></g><g
     inkscape:label="Layer 1"
     inkscape:groupmode="layer"
     id="layer1"
     transform="translate(1.6286333e-6)"
     style="fill:#2a7fff"><g
       style="fill:currentColor"
       id="g2360"
       transform="matrix(7.1578771,0,0,7.1578771,45.879795,45.747643)"><path
         fill-rule="evenodd"
         d="M 15.528,2.973 A 0.75,0.75 0 0 1 16,3.669 v 8.662 a 0.75,0.75 0 0 1 -0.472,0.696 l -7.25,2.9 a 0.75,0.75 0 0 1 -0.557,0 l -7.25,-2.9 A 0.75,0.75 0 0 1 0,12.331 V 3.669 A 0.75,0.75 0 0 1 0.471,2.973 L 7.443,0.184 7.453,0.181 7.721,0.073 a 0.75,0.75 0 0 1 0.558,0 l 0.269,0.108 0.01,0.003 z M 10.404,2 4.25,4.461 1.846,3.5 1,3.839 v 0.4 l 6.5,2.6 v 7.922 l 0.5,0.2 0.5,-0.2 V 6.84 L 15,4.24 V 3.84 L 14.154,3.501 8,5.961 5.596,5 11.75,2.539 Z"
         id="path2351" /></g></g><g
     inkscape:groupmode="layer"
     id="layer8"
     inkscape:label="Layer 4"><g
       style="fill:#2a7fff"
       id="g2396"
       transform="matrix(3.6502927,0,0,3.6502927,165.7492,126.48766)"><path
         d="m -26.111852,-27.612485 h 3.864912 a 1.9411914,1.876331 0 0 1 1.933427,2.046139 l -0.61827,6.567159 a 1.9411914,1.876331 0 0 1 -1.932456,1.706523 h -10.044694 a 1.9411914,1.876331 0 0 1 -1.932456,-1.706523 l -0.61827,-6.567159 a 1.9314854,1.8669494 0 0 1 0.331944,-1.228997 l -0.03785,-0.817142 a 1.9411914,1.876331 0 0 1 1.941191,-1.876331 h 3.564028 a 1.9411914,1.876331 0 0 1 1.372422,0.549765 l 0.803653,0.776801 a 1.9411914,1.876331 0 0 0 1.372422,0.549765 z m -8.077297,0.11258 c 0.207708,-0.07318 0.430945,-0.11258 0.663888,-0.11258 h 5.237334 l -0.686211,-0.663283 a 0.9705957,0.9381655 0 0 0 -0.686211,-0.274882 h -3.564028 a 0.9705957,0.9381655 0 0 0 -0.970595,0.92034 z"
         id="path2387"
         style="fill:#2a7fff;stroke-width:0.954241" /></g></g><g
     inkscape:groupmode="layer"
     id="layer7"
     inkscape:label="Layer 3"><g
       style="fill:#ffdd55"
       id="g2384"
       transform="matrix(3.085336,0,0,3.085336,141.68059,127.62049)"><path
         d="M 12,0 H 4 A 2,2 0 0 0 2,2 v 12 a 2,2 0 0 0 2,2 h 8 a 2,2 0 0 0 2,-2 V 2 A 2,2 0 0 0 12,0 Z M 5,4 h 6 a 0.5,0.5 0 0 1 0,1 H 5 A 0.5,0.5 0 0 1 5,4 Z M 4.5,6.5 A 0.5,0.5 0 0 1 5,6 h 6 a 0.5,0.5 0 0 1 0,1 H 5 A 0.5,0.5 0 0 1 4.5,6.5 Z M 5,8 h 6 a 0.5,0.5 0 0 1 0,1 H 5 A 0.5,0.5 0 0 1 5,8 Z m 0,2 h 3 a 0.5,0.5 0 0 1 0,1 H 5 a 0.5,0.5 0 0 1 0,-1 z"
         id="path2375"
         style="fill:#ffdd55" /></g></g></svg>
